<svg width="163" height="162" viewBox="0 0 163 162" fill="none" xmlns="http://www.w3.org/2000/svg">
<rect x="0.5" width="162" height="162" rx="20" fill="black"/>
<path d="M63.8369 93.7161C58.0776 114.999 52.1562 125.681 27.8619 125.681C25.6718 125.681 23.4411 125.52 21.251 125.44L25.9963 107.891C26.6452 108.092 27.3347 108.132 28.1053 108.132C35.8113 108.132 37.4336 100.944 39.0965 94.8806L48.5466 60.2253H72.8813L63.8369 93.7161ZM109.708 59.0206C99.8526 59.0206 88.0095 60.1449 79.2897 65.0441L72.1918 91.146C77.5862 94.8002 85.4138 96.5271 91.8219 97.9326C94.7015 98.5348 109.465 100.744 109.465 104.639C109.465 109.176 100.015 110.421 95.7968 110.421C92.1871 110.421 85.495 109.056 85.2517 104.398H68.6227L64.7291 118.854C70.975 124.878 83.5076 125.681 91.6598 125.681C107.275 125.681 134.57 120.942 134.57 100.302C134.57 82.0304 92.8359 82.6728 92.8359 76.6493C92.8359 72.5937 103.543 72.2723 106.099 72.2723C110.641 72.2723 114.453 72.3926 117.211 76.2881H141.546C141.708 75.6855 141.749 75.0431 141.749 74.4409C141.749 60.5866 119.28 59.0206 109.708 59.0206Z" fill="white"/>
<path d="M103.8 36.319H91.6336L89.4602 44.351H101.627L103.8 36.319ZM79.4676 36.319H55.1351L50.7886 52.383H87.2871L89.4602 44.351H77.2941L79.4676 36.319Z" fill="#ED1A3B"/>
</svg>
