<svg width="162" height="163" viewBox="0 0 162 163" fill="none" xmlns="http://www.w3.org/2000/svg">
<rect width="162" height="162" transform="translate(0 0.5)" fill="#FF0032"/>
<path d="M107.926 12.8464V20.4042H124.208V49.9728L124.211 50.4596H133.326V20.4042H149.608V12.8464H107.926Z" fill="white"/>
<path d="M49.2895 12.959L37.3815 37.6833L25.4733 12.959H12.4717V50.3437H21.5867V23.5883L33.2265 46.1921H41.5366L53.1796 23.5883V50.3437H62.2945V12.959H49.2895Z" fill="white"/>
<path d="M140.47 137.571C140.3 138.952 139.671 140.236 138.684 141.216C137.659 142.149 136.399 142.784 135.039 143.055C133.053 143.448 131.03 143.631 129.005 143.601C126.85 143.64 124.702 143.325 122.647 142.67C120.963 142.123 119.511 141.028 118.522 139.559C117.528 138.088 117.038 135.964 117.038 133.264V129.434C117.038 126.713 117.538 124.589 118.522 123.118C119.509 121.652 120.957 120.558 122.637 120.01C124.692 119.355 126.84 119.041 128.996 119.079C131.021 119.049 133.043 119.232 135.029 119.626C136.389 119.897 137.649 120.533 138.674 121.465C139.661 122.445 140.29 123.729 140.46 125.109H149.582C149.417 122.234 148.32 119.49 146.457 117.293C144.62 115.273 142.242 113.822 139.605 113.112C136.147 112.2 132.578 111.772 129.002 111.843C124.632 111.843 120.841 112.473 117.737 113.711C114.666 114.894 112.093 117.094 110.448 119.944C108.84 122.704 107.996 126.388 107.939 130.905V131.319V131.339V131.753C107.996 136.269 108.84 139.954 110.448 142.714C112.093 145.564 114.666 147.763 117.737 148.946C120.845 150.185 124.639 150.814 129.002 150.814C132.578 150.887 136.147 150.46 139.605 149.546C142.243 148.838 144.622 147.387 146.457 145.364C148.32 143.167 149.417 140.424 149.582 137.548L140.47 137.571Z" fill="white"/>
</svg>
